<svg id="visual" viewBox="0 0 1920 1080" width="1920" height="1080" xmlns="http://www.w3.org/2000/svg" xmlns:xlink="http://www.w3.org/1999/xlink" version="1.1"><rect width="1920" height="1080" fill="#e7e7e7"></rect><g><g transform="translate(175 36)"><path d="M158.7 -49.3C179.6 12.5 152.3 92.3 94.5 135.6C36.7 178.9 -51.6 185.7 -101.8 147.5C-151.9 109.3 -164 26 -140.7 -39.2C-117.3 -104.4 -58.7 -151.7 5.1 -153.3C69 -155 137.9 -111.1 158.7 -49.3Z" fill="#00a784"></path></g><g transform="translate(1465 246)"><path d="M146.7 -48.2C165.3 9.5 138.4 81.5 87 118.4C35.7 155.4 -40 157.3 -93.3 120.4C-146.7 83.6 -177.6 7.9 -158.4 -50.8C-139.1 -109.5 -69.5 -151.3 -2.7 -150.4C64.1 -149.5 128.1 -106 146.7 -48.2Z" fill="#00a784"></path></g><g transform="translate(460 842)"><path d="M132.4 -36.3C153.5 21.9 140 98.1 92 134.9C44.1 171.7 -38.5 169.1 -91 129.8C-143.6 90.6 -166.2 14.6 -146 -42.4C-125.9 -99.3 -62.9 -137.3 -3.6 -136.1C55.7 -134.9 111.3 -94.6 132.4 -36.3Z" fill="#00a784"></path></g></g></svg>