<svg id="visual" viewBox="0 0 1920 1080" width="1920" height="1080" xmlns="http://www.w3.org/2000/svg" xmlns:xlink="http://www.w3.org/1999/xlink" version="1.1"><rect x="0" y="0" width="1920" height="1080" fill="#001220"></rect><defs><linearGradient id="grad1_0" x1="43.8%" y1="100%" x2="100%" y2="0%"><stop offset="14.444444444444446%" stop-color="#001220" stop-opacity="1"></stop><stop offset="85.55555555555554%" stop-color="#001220" stop-opacity="1"></stop></linearGradient></defs><defs><linearGradient id="grad2_0" x1="0%" y1="100%" x2="56.3%" y2="0%"><stop offset="14.444444444444446%" stop-color="#001220" stop-opacity="1"></stop><stop offset="85.55555555555554%" stop-color="#001220" stop-opacity="1"></stop></linearGradient></defs><g transform="translate(1920, 1080)"><path d="M-702 0C-699.1 -62.1 -696.3 -124.1 -678.1 -181.7C-659.9 -239.3 -626.4 -292.4 -589.8 -340.5C-553.2 -388.6 -513.5 -431.8 -468.8 -468.8C-424.2 -505.8 -374.6 -536.8 -324 -561.2C-273.4 -585.6 -221.9 -603.5 -167.7 -625.9C-113.6 -648.3 -56.8 -675.2 0 -702L0 0Z" fill="#FBAE3C"></path></g><g transform="translate(0, 0)"><path d="M702 0C697.9 62 693.8 124.1 673.3 180.4C652.7 236.7 615.6 287.3 578.5 334C541.4 380.7 504.3 423.4 465.3 465.3C426.2 507.2 385.3 548.3 338.5 586.3C291.7 624.3 239.1 659.3 181.7 678.1C124.3 696.9 62.2 699.4 0 702L0 0Z" fill="#FBAE3C"></path></g></svg>