<svg id="visual" viewBox="0 0 1920 1080" width="1920" height="1080" xmlns="http://www.w3.org/2000/svg" xmlns:xlink="http://www.w3.org/1999/xlink" version="1.1"><rect x="0" y="0" width="1920" height="1080" fill="#140021"></rect><path d="M1073 1080L858 1080L858 926L1219 926L1219 771L1211 771L1211 617L1143 617L1143 463L1060 463L1060 309L843 309L843 154L974 154L974 0L1920 0L1920 154L1920 154L1920 309L1920 309L1920 463L1920 463L1920 617L1920 617L1920 771L1920 771L1920 926L1920 926L1920 1080L1920 1080Z" fill="#9900ff"></path><path d="M1320 1080L1213 1080L1213 926L1224 926L1224 771L1226 771L1226 617L1146 617L1146 463L1112 463L1112 309L1430 309L1430 154L1489 154L1489 0L1920 0L1920 154L1920 154L1920 309L1920 309L1920 463L1920 463L1920 617L1920 617L1920 771L1920 771L1920 926L1920 926L1920 1080L1920 1080Z" fill="#7700c6"></path><path d="M1625 1080L1448 1080L1448 926L1602 926L1602 771L1605 771L1605 617L1525 617L1525 463L1618 463L1618 309L1672 309L1672 154L1529 154L1529 0L1920 0L1920 154L1920 154L1920 309L1920 309L1920 463L1920 463L1920 617L1920 617L1920 771L1920 771L1920 926L1920 926L1920 1080L1920 1080Z" fill="#560090"></path></svg>