<svg id="visual" viewBox="0 0 1920 1080" width="1920" height="1080" xmlns="http://www.w3.org/2000/svg" xmlns:xlink="http://www.w3.org/1999/xlink" version="1.1"><rect width="1920" height="1080" fill="#140021"></rect><g><g transform="translate(546 557)"><path d="M0 -242.3L209.9 -121.2L209.9 121.2L0 242.3L-209.9 121.2L-209.9 -121.2Z" fill="#9900FF"></path></g><g transform="translate(1325 1034)"><path d="M0 -231L200.1 -115.5L200.1 115.5L0 231L-200.1 115.5L-200.1 -115.5Z" fill="#9900FF"></path></g><g transform="translate(1727 374)"><path d="M0 -220L190.5 -110L190.5 110L0 220L-190.5 110L-190.5 -110Z" fill="#9900FF"></path></g><g transform="translate(22 571)"><path d="M0 -221L191.4 -110.5L191.4 110.5L0 221L-191.4 110.5L-191.4 -110.5Z" fill="#9900FF"></path></g><g transform="translate(89 1059)"><path d="M0 -222L192.3 -111L192.3 111L0 222L-192.3 111L-192.3 -111Z" fill="#9900FF"></path></g></g></svg>