<svg id="visual" viewBox="0 0 1920 1080" width="1920" height="1080" xmlns="http://www.w3.org/2000/svg" xmlns:xlink="http://www.w3.org/1999/xlink" version="1.1"><rect x="0" y="0" width="1920" height="1080" fill="#140021"></rect><defs><linearGradient id="grad1_0" x1="43.8%" y1="0%" x2="100%" y2="100%"><stop offset="14.444444444444446%" stop-color="#fbae3c" stop-opacity="1"></stop><stop offset="85.55555555555554%" stop-color="#fbae3c" stop-opacity="1"></stop></linearGradient></defs><defs><linearGradient id="grad1_1" x1="43.8%" y1="0%" x2="100%" y2="100%"><stop offset="14.444444444444446%" stop-color="#fbae3c" stop-opacity="1"></stop><stop offset="85.55555555555554%" stop-color="#ed8644" stop-opacity="1"></stop></linearGradient></defs><defs><linearGradient id="grad1_2" x1="43.8%" y1="0%" x2="100%" y2="100%"><stop offset="14.444444444444446%" stop-color="#d4634c" stop-opacity="1"></stop><stop offset="85.55555555555554%" stop-color="#ed8644" stop-opacity="1"></stop></linearGradient></defs><defs><linearGradient id="grad1_3" x1="43.8%" y1="0%" x2="100%" y2="100%"><stop offset="14.444444444444446%" stop-color="#d4634c" stop-opacity="1"></stop><stop offset="85.55555555555554%" stop-color="#b24650" stop-opacity="1"></stop></linearGradient></defs><defs><linearGradient id="grad1_4" x1="43.8%" y1="0%" x2="100%" y2="100%"><stop offset="14.444444444444446%" stop-color="#8a304f" stop-opacity="1"></stop><stop offset="85.55555555555554%" stop-color="#b24650" stop-opacity="1"></stop></linearGradient></defs><defs><linearGradient id="grad1_5" x1="43.8%" y1="0%" x2="100%" y2="100%"><stop offset="14.444444444444446%" stop-color="#8a304f" stop-opacity="1"></stop><stop offset="85.55555555555554%" stop-color="#602046" stop-opacity="1"></stop></linearGradient></defs><defs><linearGradient id="grad1_6" x1="43.8%" y1="0%" x2="100%" y2="100%"><stop offset="14.444444444444446%" stop-color="#361436" stop-opacity="1"></stop><stop offset="85.55555555555554%" stop-color="#602046" stop-opacity="1"></stop></linearGradient></defs><defs><linearGradient id="grad1_7" x1="43.8%" y1="0%" x2="100%" y2="100%"><stop offset="14.444444444444446%" stop-color="#361436" stop-opacity="1"></stop><stop offset="85.55555555555554%" stop-color="#140021" stop-opacity="1"></stop></linearGradient></defs><defs><linearGradient id="grad2_0" x1="0%" y1="0%" x2="56.3%" y2="100%"><stop offset="14.444444444444446%" stop-color="#fbae3c" stop-opacity="1"></stop><stop offset="85.55555555555554%" stop-color="#fbae3c" stop-opacity="1"></stop></linearGradient></defs><defs><linearGradient id="grad2_1" x1="0%" y1="0%" x2="56.3%" y2="100%"><stop offset="14.444444444444446%" stop-color="#ed8644" stop-opacity="1"></stop><stop offset="85.55555555555554%" stop-color="#fbae3c" stop-opacity="1"></stop></linearGradient></defs><defs><linearGradient id="grad2_2" x1="0%" y1="0%" x2="56.3%" y2="100%"><stop offset="14.444444444444446%" stop-color="#ed8644" stop-opacity="1"></stop><stop offset="85.55555555555554%" stop-color="#d4634c" stop-opacity="1"></stop></linearGradient></defs><defs><linearGradient id="grad2_3" x1="0%" y1="0%" x2="56.3%" y2="100%"><stop offset="14.444444444444446%" stop-color="#b24650" stop-opacity="1"></stop><stop offset="85.55555555555554%" stop-color="#d4634c" stop-opacity="1"></stop></linearGradient></defs><defs><linearGradient id="grad2_4" x1="0%" y1="0%" x2="56.3%" y2="100%"><stop offset="14.444444444444446%" stop-color="#b24650" stop-opacity="1"></stop><stop offset="85.55555555555554%" stop-color="#8a304f" stop-opacity="1"></stop></linearGradient></defs><defs><linearGradient id="grad2_5" x1="0%" y1="0%" x2="56.3%" y2="100%"><stop offset="14.444444444444446%" stop-color="#602046" stop-opacity="1"></stop><stop offset="85.55555555555554%" stop-color="#8a304f" stop-opacity="1"></stop></linearGradient></defs><defs><linearGradient id="grad2_6" x1="0%" y1="0%" x2="56.3%" y2="100%"><stop offset="14.444444444444446%" stop-color="#602046" stop-opacity="1"></stop><stop offset="85.55555555555554%" stop-color="#361436" stop-opacity="1"></stop></linearGradient></defs><defs><linearGradient id="grad2_7" x1="0%" y1="0%" x2="56.3%" y2="100%"><stop offset="14.444444444444446%" stop-color="#140021" stop-opacity="1"></stop><stop offset="85.55555555555554%" stop-color="#361436" stop-opacity="1"></stop></linearGradient></defs><g transform="translate(1920, 0)"><path d="M0 785C-117.4 814.7 -234.9 844.4 -340.2 821.3C-445.6 798.3 -538.8 722.4 -642.8 642.8C-746.7 563.1 -861.4 479.7 -898 372C-934.7 264.2 -893.3 132.1 -852 0L0 0Z" fill="#230e2c"></path><path d="M0 686.9C-102.8 712.9 -205.5 738.9 -297.7 718.7C-389.9 698.5 -471.5 632.1 -562.4 562.4C-653.4 492.7 -753.7 419.8 -785.8 325.5C-817.8 231.2 -781.7 115.6 -745.5 0L0 0Z" fill="#4b1a3f"></path><path d="M0 588.8C-88.1 611 -176.1 633.3 -255.2 616C-334.2 598.7 -404.1 541.8 -482.1 482.1C-560 422.3 -646 359.8 -673.5 279C-701 198.2 -670 99.1 -639 0L0 0Z" fill="#75284b"></path><path d="M0 490.6C-73.4 509.2 -146.8 527.8 -212.6 513.3C-278.5 498.9 -336.8 451.5 -401.7 401.7C-466.7 352 -538.3 299.8 -561.3 232.5C-584.2 165.1 -558.3 82.6 -532.5 0L0 0Z" fill="#9f3a50"></path><path d="M0 392.5C-58.7 407.4 -117.4 422.2 -170.1 410.7C-222.8 399.1 -269.4 361.2 -321.4 321.4C-373.4 281.6 -430.7 239.9 -449 186C-467.3 132.1 -446.7 66.1 -426 0L0 0Z" fill="#c4534f"></path><path d="M0 294.4C-44 305.5 -88.1 316.7 -127.6 308C-167.1 299.3 -202.1 270.9 -241 241C-280 211.2 -323 179.9 -336.8 139.5C-350.5 99.1 -335 49.5 -319.5 0L0 0Z" fill="#e27448"></path><path d="M0 196.3C-29.4 203.7 -58.7 211.1 -85.1 205.3C-111.4 199.6 -134.7 180.6 -160.7 160.7C-186.7 140.8 -215.3 119.9 -224.5 93C-233.7 66.1 -223.3 33 -213 0L0 0Z" fill="#f59a3f"></path><path d="M0 98.1C-14.7 101.8 -29.4 105.6 -42.5 102.7C-55.7 99.8 -67.4 90.3 -80.3 80.3C-93.3 70.4 -107.7 60 -112.3 46.5C-116.8 33 -111.7 16.5 -106.5 0L0 0Z" fill="#fbae3c"></path></g><g transform="translate(0, 1080)"><path d="M0 -966C144.2 -970.1 288.5 -974.3 372 -898C455.5 -821.8 478.3 -665.1 572 -572C665.8 -479 830.6 -449.4 880.5 -364.7C930.3 -279.9 865.1 -140 800 0L0 0Z" fill="#230e2c"></path><path d="M0 -845.2C126.2 -848.9 252.4 -852.5 325.5 -785.8C398.5 -719 418.5 -582 500.5 -500.5C582.6 -419.1 726.8 -393.3 770.4 -319.1C814 -245 757 -122.5 700 0L0 0Z" fill="#4b1a3f"></path><path d="M0 -724.5C108.2 -727.6 216.3 -730.7 279 -673.5C341.6 -616.3 358.7 -498.8 429 -429C499.4 -359.2 623 -337.1 660.3 -273.5C697.7 -210 648.9 -105 600 0L0 0Z" fill="#75284b"></path><path d="M0 -603.7C90.1 -606.3 180.3 -608.9 232.5 -561.3C284.7 -513.6 298.9 -415.7 357.5 -357.5C416.1 -299.4 519.1 -280.9 550.3 -227.9C581.4 -175 540.7 -87.5 500 0L0 0Z" fill="#9f3a50"></path><path d="M0 -483C72.1 -485.1 144.2 -487.1 186 -449C227.7 -410.9 239.1 -332.6 286 -286C332.9 -239.5 415.3 -224.7 440.2 -182.3C465.1 -140 432.6 -70 400 0L0 0Z" fill="#c4534f"></path><path d="M0 -362.2C54.1 -363.8 108.2 -365.3 139.5 -336.8C170.8 -308.2 179.3 -249.4 214.5 -214.5C249.7 -179.6 311.5 -168.5 330.2 -136.8C348.9 -105 324.4 -52.5 300 0L0 0Z" fill="#e27448"></path><path d="M0 -241.5C36.1 -242.5 72.1 -243.6 93 -224.5C113.9 -205.4 119.6 -166.3 143 -143C166.5 -119.7 207.7 -112.4 220.1 -91.2C232.6 -70 216.3 -35 200 0L0 0Z" fill="#f59a3f"></path><path d="M0 -120.7C18 -121.3 36.1 -121.8 46.5 -112.3C56.9 -102.7 59.8 -83.1 71.5 -71.5C83.2 -59.9 103.8 -56.2 110.1 -45.6C116.3 -35 108.1 -17.5 100 0L0 0Z" fill="#fbae3c"></path></g></svg>