<svg id="visual" viewBox="0 0 1920 1080" width="1920" height="1080" xmlns="http://www.w3.org/2000/svg" xmlns:xlink="http://www.w3.org/1999/xlink" version="1.1"><rect x="0" y="0" width="1920" height="1080" fill="#e0e0e0"></rect><path d="M0 151L80 167C160 183 320 215 480 291.7C640 368.3 800 489.7 960 622C1120 754.3 1280 897.7 1440 964.3C1600 1031 1760 1021 1840 1016L1920 1011L1920 1081L1840 1081C1760 1081 1600 1081 1440 1081C1280 1081 1120 1081 960 1081C800 1081 640 1081 480 1081C320 1081 160 1081 80 1081L0 1081Z" fill="#001122"></path></svg>