<svg id="visual" viewBox="0 0 1920 1080" width="1920" height="1080" xmlns="http://www.w3.org/2000/svg" xmlns:xlink="http://www.w3.org/1999/xlink" version="1.1"><rect x="0" y="0" width="1920" height="1080" fill="#e0e0e0"></rect><path d="M1148 1080L1120.7 1035C1093.3 990 1038.7 900 1010.5 810C982.3 720 980.7 630 1033 540C1085.3 450 1191.7 360 1229.3 270C1267 180 1236 90 1220.5 45L1205 0L1920 0L1920 45C1920 90 1920 180 1920 270C1920 360 1920 450 1920 540C1920 630 1920 720 1920 810C1920 900 1920 990 1920 1035L1920 1080Z" fill="#001122"></path></svg>