<svg id="visual" viewBox="0 0 1920 1080" width="1920" height="1080" xmlns="http://www.w3.org/2000/svg" xmlns:xlink="http://www.w3.org/1999/xlink" version="1.1"><rect width="1920" height="1080" fill="#931F1F"></rect><g><g transform="translate(1185 823)"><path d="M202.6 -58.3C228.4 13.8 191.9 113.8 122.9 162.3C53.9 210.8 -47.5 207.9 -116.6 158.3C-185.6 108.6 -222.3 12.3 -197.4 -58.4C-172.6 -129.1 -86.3 -174.2 1 -174.5C88.3 -174.8 176.7 -130.5 202.6 -58.3Z" fill="#F7760E"></path></g><g transform="translate(1655 467)"><path d="M110.3 -41.4C122.5 1.7 97.9 51.3 57.3 81.4C16.7 111.5 -39.9 122.2 -72 98.9C-104.2 75.6 -111.9 18.4 -95.8 -30.1C-79.7 -78.5 -39.9 -118.1 4.6 -119.6C49.1 -121.1 98.1 -84.5 110.3 -41.4Z" fill="#F7760E"></path></g><g transform="translate(552 42)"><path d="M152.7 -52.3C169.2 1.4 134.4 69.2 82.5 104.8C30.6 140.5 -38.3 144.1 -86.4 111C-134.5 78 -161.7 8.3 -143.8 -47.3C-125.9 -102.8 -63 -144.2 2.5 -145C68 -145.8 136.1 -106.1 152.7 -52.3Z" fill="#F7760E"></path></g></g></svg>