<svg id="visual" viewBox="0 0 1920 1080" width="1920" height="1080" xmlns="http://www.w3.org/2000/svg" xmlns:xlink="http://www.w3.org/1999/xlink" version="1.1"><rect width="1920" height="1080" fill="#e7e7e7"></rect><g><g transform="translate(899 174)"><path d="M160.6 -55.9C179.7 6.4 146.9 81.7 87.9 125.8C28.9 169.8 -56.4 182.4 -113.6 143.9C-170.7 105.3 -199.7 15.5 -176 -53.1C-152.4 -121.6 -76.2 -168.9 -2.7 -168.1C70.8 -167.2 141.6 -118.1 160.6 -55.9Z" fill="none" stroke="#00a784" stroke-width="20"></path></g><g transform="translate(1272 561)"><path d="M106.8 -36.4C123.3 16 111.1 76 70.7 107.8C30.3 139.6 -38.2 143.2 -78 113C-117.8 82.7 -129 18.6 -111.2 -35.6C-93.4 -89.7 -46.7 -133.9 -0.8 -133.7C45.2 -133.4 90.3 -88.7 106.8 -36.4Z" fill="none" stroke="#00a784" stroke-width="20"></path></g><g transform="translate(639 1061)"><path d="M96.7 -32.5C110.6 11.3 96.9 62.9 63.3 87.5C29.7 112 -23.9 109.3 -56.6 84.1C-89.4 58.9 -101.3 11.1 -88.3 -31.4C-75.4 -73.8 -37.7 -110.9 1.8 -111.5C41.4 -112.1 82.8 -76.2 96.7 -32.5Z" fill="none" stroke="#00a784" stroke-width="20"></path></g><g transform="translate(307 208)"><path d="M101.5 -35.7C113.1 3 91.6 49.7 55 76.5C18.4 103.3 -33.3 110.2 -66.3 87.2C-99.3 64.2 -113.5 11.4 -99.3 -30.8C-85.1 -72.9 -42.6 -104.4 1.2 -104.8C44.9 -105.1 89.8 -74.4 101.5 -35.7Z" fill="none" stroke="#00a784" stroke-width="20"></path></g><g transform="translate(1632 1053)"><path d="M113.1 -38C126.2 3.6 102.4 55.8 63.6 82.9C24.9 109.9 -28.8 111.7 -64.3 86.4C-99.8 61 -117.3 8.6 -103.5 -33.8C-89.8 -76.3 -44.9 -108.8 2.5 -109.7C50 -110.5 100 -79.6 113.1 -38Z" fill="none" stroke="#00a784" stroke-width="20"></path></g><g transform="translate(1754 306)"><path d="M107.5 -34.4C120.7 5.6 99.8 57.1 64.2 81.3C28.7 105.5 -21.7 102.3 -59.3 76.2C-96.9 50.2 -121.7 1.3 -109.8 -37.2C-97.8 -75.6 -48.9 -103.5 -0.8 -103.2C47.2 -102.9 94.4 -74.5 107.5 -34.4Z" fill="none" stroke="#00a784" stroke-width="20"></path></g></g></svg>